<svg width="328" height="336" viewBox="0 0 328 336" fill="none" xmlns="http://www.w3.org/2000/svg">
<path d="M327.86 234.352C327.86 246.768 317.384 257.244 304.968 257.244H258.02V304.968C258.02 316.996 247.544 327.86 235.128 327.86H94.2841C63.6321 327.86 63.6321 282.076 94.2841 282.076H212.236V234.352C212.236 222.324 223.1 211.46 235.128 211.46H282.076V116.4H235.128C223.1 116.4 212.236 105.536 212.236 93.508V45.784H45.7841V304.968C45.7841 335.62 5.13941e-05 335.62 5.13941e-05 304.968V22.892C5.13941e-05 10.476 10.8641 1.23978e-05 22.8921 1.23978e-05H235.128C247.544 1.23978e-05 258.02 10.476 258.02 22.892V70.228H304.968C317.384 70.228 327.86 81.092 327.86 93.508V234.352Z" fill="#000"/>
</svg>
